<mxfile host="Electron" modified="2024-02-21T14:24:27.833Z" agent="Mozilla/5.0 (Macintosh; Intel Mac OS X 10_15_7) AppleWebKit/537.36 (KHTML, like Gecko) draw.io/23.1.5 Chrome/120.0.6099.109 Electron/28.1.0 Safari/537.36" etag="_522PVjnm163nnKuNX4b" version="23.1.5" type="device">
  <diagram name="第 1 页" id="pyD3vghstRLxRCncwUWH">
    <mxGraphModel dx="1434" dy="1938" grid="1" gridSize="10" guides="1" tooltips="1" connect="1" arrows="1" fold="1" page="1" pageScale="1" pageWidth="827" pageHeight="1169" background="#CCCCCC" math="0" shadow="0">
      <root>
        <mxCell id="0" />
        <mxCell id="1" parent="0" />
        <mxCell id="jQf6ZwEHjVYbVm3GbVBc-31" style="edgeStyle=orthogonalEdgeStyle;rounded=0;orthogonalLoop=1;jettySize=auto;html=1;exitX=0.5;exitY=1;exitDx=0;exitDy=0;strokeColor=#A8201A;align=center;verticalAlign=middle;fontFamily=Helvetica;fontSize=11;fontColor=#143642;labelBackgroundColor=default;endArrow=classic;fillColor=#FAE5C7;strokeWidth=3;" edge="1" parent="1" source="UFW-9TF6IpXk0PB1q6sR-1">
          <mxGeometry relative="1" as="geometry">
            <mxPoint x="680" y="280" as="targetPoint" />
          </mxGeometry>
        </mxCell>
        <mxCell id="UFW-9TF6IpXk0PB1q6sR-1" value="校验配置文件" style="rounded=1;whiteSpace=wrap;html=1;labelBackgroundColor=none;fillColor=#FAE5C7;strokeColor=#0F8B8D;fontColor=#143642;" parent="1" vertex="1">
          <mxGeometry x="620" y="140" width="120" height="60" as="geometry" />
        </mxCell>
        <mxCell id="UFW-9TF6IpXk0PB1q6sR-31" style="edgeStyle=orthogonalEdgeStyle;rounded=0;orthogonalLoop=1;jettySize=auto;html=1;exitX=0.5;exitY=0;exitDx=0;exitDy=0;entryX=0.5;entryY=0;entryDx=0;entryDy=0;startArrow=openThin;startFill=0;labelBackgroundColor=none;strokeColor=#A8201A;fontColor=default;strokeWidth=3;" parent="1" source="UFW-9TF6IpXk0PB1q6sR-2" target="UFW-9TF6IpXk0PB1q6sR-4" edge="1">
          <mxGeometry relative="1" as="geometry">
            <Array as="points">
              <mxPoint x="230" y="280" />
              <mxPoint x="400" y="280" />
            </Array>
          </mxGeometry>
        </mxCell>
        <mxCell id="UFW-9TF6IpXk0PB1q6sR-2" value="启动监控kill信号" style="rounded=1;whiteSpace=wrap;html=1;labelBackgroundColor=none;fillColor=#FAE5C7;strokeColor=#0F8B8D;fontColor=#143642;" parent="1" vertex="1">
          <mxGeometry x="170" y="320" width="120" height="60" as="geometry" />
        </mxCell>
        <mxCell id="UFW-9TF6IpXk0PB1q6sR-32" style="edgeStyle=orthogonalEdgeStyle;rounded=0;orthogonalLoop=1;jettySize=auto;html=1;exitX=0.5;exitY=0;exitDx=0;exitDy=0;entryX=0.5;entryY=0;entryDx=0;entryDy=0;labelBackgroundColor=none;strokeColor=#A8201A;fontColor=default;strokeWidth=3;" parent="1" source="UFW-9TF6IpXk0PB1q6sR-4" target="UFW-9TF6IpXk0PB1q6sR-5" edge="1">
          <mxGeometry relative="1" as="geometry">
            <Array as="points">
              <mxPoint x="400" y="280" />
              <mxPoint x="570" y="280" />
            </Array>
          </mxGeometry>
        </mxCell>
        <mxCell id="jQf6ZwEHjVYbVm3GbVBc-36" style="edgeStyle=orthogonalEdgeStyle;rounded=0;orthogonalLoop=1;jettySize=auto;html=1;exitX=0.5;exitY=1;exitDx=0;exitDy=0;entryX=0.25;entryY=0;entryDx=0;entryDy=0;strokeColor=#FF3399;align=center;verticalAlign=middle;fontFamily=Helvetica;fontSize=11;fontColor=#143642;labelBackgroundColor=default;endArrow=classic;fillColor=#FAE5C7;dashed=1;strokeWidth=3;" edge="1" parent="1" source="UFW-9TF6IpXk0PB1q6sR-4" target="UFW-9TF6IpXk0PB1q6sR-7">
          <mxGeometry relative="1" as="geometry">
            <Array as="points">
              <mxPoint x="400" y="660" />
              <mxPoint x="770" y="660" />
              <mxPoint x="770" y="770" />
              <mxPoint x="830" y="770" />
            </Array>
          </mxGeometry>
        </mxCell>
        <mxCell id="UFW-9TF6IpXk0PB1q6sR-4" value="Scrape discovery manager&lt;br&gt;启动监控对象的服务发现" style="rounded=1;whiteSpace=wrap;html=1;labelBackgroundColor=none;fillColor=#FAE5C7;strokeColor=#0F8B8D;fontColor=#143642;" parent="1" vertex="1">
          <mxGeometry x="340" y="320" width="120" height="60" as="geometry" />
        </mxCell>
        <mxCell id="jQf6ZwEHjVYbVm3GbVBc-30" style="edgeStyle=orthogonalEdgeStyle;rounded=0;orthogonalLoop=1;jettySize=auto;html=1;exitX=0.5;exitY=0;exitDx=0;exitDy=0;entryX=0.5;entryY=0;entryDx=0;entryDy=0;strokeColor=#A8201A;align=center;verticalAlign=middle;fontFamily=Helvetica;fontSize=11;fontColor=#143642;labelBackgroundColor=default;endArrow=classic;fillColor=#FAE5C7;strokeWidth=3;" edge="1" parent="1" source="UFW-9TF6IpXk0PB1q6sR-5" target="UFW-9TF6IpXk0PB1q6sR-15">
          <mxGeometry relative="1" as="geometry" />
        </mxCell>
        <mxCell id="UFW-9TF6IpXk0PB1q6sR-5" value="Notify discovery manager&lt;br&gt;启动告警服务发现" style="rounded=1;whiteSpace=wrap;html=1;labelBackgroundColor=none;fillColor=#FAE5C7;strokeColor=#0F8B8D;fontColor=#143642;" parent="1" vertex="1">
          <mxGeometry x="510" y="320" width="120" height="60" as="geometry" />
        </mxCell>
        <mxCell id="UFW-9TF6IpXk0PB1q6sR-7" value="Scrape manager" style="rounded=1;whiteSpace=wrap;html=1;labelBackgroundColor=none;fillColor=#FAE5C7;strokeColor=#0F8B8D;fontColor=#143642;" parent="1" vertex="1">
          <mxGeometry x="800" y="810" width="120" height="60" as="geometry" />
        </mxCell>
        <mxCell id="UFW-9TF6IpXk0PB1q6sR-10" value="Notifier&lt;br&gt;告警组件" style="rounded=1;whiteSpace=wrap;html=1;labelBackgroundColor=none;fillColor=#FAE5C7;strokeColor=#0F8B8D;fontColor=#143642;" parent="1" vertex="1">
          <mxGeometry x="390" y="810" width="120" height="60" as="geometry" />
        </mxCell>
        <mxCell id="UFW-9TF6IpXk0PB1q6sR-13" value="Web handler" style="rounded=1;whiteSpace=wrap;html=1;labelBackgroundColor=none;fillColor=#FAE5C7;strokeColor=#0F8B8D;fontColor=#143642;" parent="1" vertex="1">
          <mxGeometry x="1100" y="320" width="120" height="60" as="geometry" />
        </mxCell>
        <mxCell id="jQf6ZwEHjVYbVm3GbVBc-12" style="edgeStyle=orthogonalEdgeStyle;rounded=0;orthogonalLoop=1;jettySize=auto;html=1;exitX=0.5;exitY=1;exitDx=0;exitDy=0;strokeColor=#A8201A;align=center;verticalAlign=middle;fontFamily=Helvetica;fontSize=11;fontColor=#143642;labelBackgroundColor=default;endArrow=classic;fillColor=#FAE5C7;strokeWidth=3;" edge="1" parent="1" source="UFW-9TF6IpXk0PB1q6sR-14">
          <mxGeometry relative="1" as="geometry">
            <mxPoint x="860" y="600" as="targetPoint" />
          </mxGeometry>
        </mxCell>
        <mxCell id="UFW-9TF6IpXk0PB1q6sR-14" value="WAL storage" style="rounded=1;whiteSpace=wrap;html=1;labelBackgroundColor=none;fillColor=#FAE5C7;strokeColor=#0F8B8D;fontColor=#143642;" parent="1" vertex="1">
          <mxGeometry x="923" y="420" width="120" height="60" as="geometry" />
        </mxCell>
        <mxCell id="jQf6ZwEHjVYbVm3GbVBc-2" style="edgeStyle=orthogonalEdgeStyle;rounded=0;orthogonalLoop=1;jettySize=auto;html=1;exitX=0;exitY=0.5;exitDx=0;exitDy=0;strokeColor=#A8201A;fontColor=#143642;fillColor=#FAE5C7;strokeWidth=3;" edge="1" parent="1" source="UFW-9TF6IpXk0PB1q6sR-15" target="UFW-9TF6IpXk0PB1q6sR-20">
          <mxGeometry relative="1" as="geometry" />
        </mxCell>
        <mxCell id="jQf6ZwEHjVYbVm3GbVBc-3" style="edgeStyle=orthogonalEdgeStyle;rounded=0;orthogonalLoop=1;jettySize=auto;html=1;exitX=1;exitY=0.5;exitDx=0;exitDy=0;strokeColor=#A8201A;align=center;verticalAlign=middle;fontFamily=Helvetica;fontSize=11;fontColor=#143642;labelBackgroundColor=default;endArrow=classic;fillColor=#FAE5C7;strokeWidth=3;" edge="1" parent="1" source="UFW-9TF6IpXk0PB1q6sR-15" target="UFW-9TF6IpXk0PB1q6sR-14">
          <mxGeometry relative="1" as="geometry" />
        </mxCell>
        <mxCell id="jQf6ZwEHjVYbVm3GbVBc-29" style="edgeStyle=orthogonalEdgeStyle;rounded=0;orthogonalLoop=1;jettySize=auto;html=1;exitX=0.5;exitY=0;exitDx=0;exitDy=0;entryX=0.5;entryY=0;entryDx=0;entryDy=0;strokeColor=#A8201A;align=center;verticalAlign=middle;fontFamily=Helvetica;fontSize=11;fontColor=#143642;labelBackgroundColor=default;endArrow=classic;fillColor=#FAE5C7;strokeWidth=3;" edge="1" parent="1" source="UFW-9TF6IpXk0PB1q6sR-15" target="UFW-9TF6IpXk0PB1q6sR-13">
          <mxGeometry relative="1" as="geometry" />
        </mxCell>
        <mxCell id="UFW-9TF6IpXk0PB1q6sR-15" value="代理模式" style="rhombus;whiteSpace=wrap;html=1;labelBackgroundColor=none;fillColor=#FAE5C7;strokeColor=#0F8B8D;fontColor=#143642;" parent="1" vertex="1">
          <mxGeometry x="823" y="300" width="80" height="80" as="geometry" />
        </mxCell>
        <mxCell id="UFW-9TF6IpXk0PB1q6sR-18" value="NO" style="text;html=1;align=center;verticalAlign=middle;whiteSpace=wrap;rounded=0;labelBackgroundColor=none;fontColor=#143642;fontStyle=1" parent="1" vertex="1">
          <mxGeometry x="763" y="310" width="60" height="30" as="geometry" />
        </mxCell>
        <mxCell id="UFW-9TF6IpXk0PB1q6sR-19" value="YES" style="text;html=1;align=center;verticalAlign=middle;whiteSpace=wrap;rounded=0;labelBackgroundColor=none;fontColor=#143642;fontStyle=1" parent="1" vertex="1">
          <mxGeometry x="933" y="310" width="60" height="30" as="geometry" />
        </mxCell>
        <mxCell id="jQf6ZwEHjVYbVm3GbVBc-7" style="edgeStyle=orthogonalEdgeStyle;rounded=0;orthogonalLoop=1;jettySize=auto;html=1;exitX=0.5;exitY=1;exitDx=0;exitDy=0;entryX=0.5;entryY=0;entryDx=0;entryDy=0;strokeColor=#A8201A;align=center;verticalAlign=middle;fontFamily=Helvetica;fontSize=11;fontColor=#143642;labelBackgroundColor=default;endArrow=classic;fillColor=#FAE5C7;strokeWidth=3;" edge="1" parent="1" source="UFW-9TF6IpXk0PB1q6sR-20" target="jQf6ZwEHjVYbVm3GbVBc-4">
          <mxGeometry relative="1" as="geometry" />
        </mxCell>
        <mxCell id="UFW-9TF6IpXk0PB1q6sR-20" value="TSDB" style="rounded=1;whiteSpace=wrap;html=1;labelBackgroundColor=none;fillColor=#FAE5C7;strokeColor=#0F8B8D;fontColor=#143642;" parent="1" vertex="1">
          <mxGeometry x="680" y="420" width="120" height="60" as="geometry" />
        </mxCell>
        <mxCell id="UFW-9TF6IpXk0PB1q6sR-40" value="tyltr&lt;div&gt;&lt;br/&gt;&lt;/div&gt;" style="text;html=1;align=center;verticalAlign=middle;whiteSpace=wrap;rounded=0;labelBackgroundColor=none;fontColor=#143642;" parent="1" vertex="1">
          <mxGeometry x="110" y="-20" width="60" height="30" as="geometry" />
        </mxCell>
        <mxCell id="UFW-9TF6IpXk0PB1q6sR-41" value="tyltr&lt;div&gt;&lt;br/&gt;&lt;/div&gt;" style="text;html=1;align=center;verticalAlign=middle;whiteSpace=wrap;rounded=0;labelBackgroundColor=none;fontColor=#143642;" parent="1" vertex="1">
          <mxGeometry x="1390" y="880" width="60" height="30" as="geometry" />
        </mxCell>
        <mxCell id="jQf6ZwEHjVYbVm3GbVBc-16" style="edgeStyle=orthogonalEdgeStyle;rounded=0;orthogonalLoop=1;jettySize=auto;html=1;exitX=0.5;exitY=1;exitDx=0;exitDy=0;entryX=0.5;entryY=0;entryDx=0;entryDy=0;strokeColor=#A8201A;align=center;verticalAlign=middle;fontFamily=Helvetica;fontSize=11;fontColor=#143642;labelBackgroundColor=default;endArrow=classic;fillColor=#FAE5C7;strokeWidth=3;" edge="1" parent="1" source="jQf6ZwEHjVYbVm3GbVBc-4" target="UFW-9TF6IpXk0PB1q6sR-7">
          <mxGeometry relative="1" as="geometry" />
        </mxCell>
        <mxCell id="jQf6ZwEHjVYbVm3GbVBc-4" value="Initial configuration loading&lt;br&gt;加载初始配置" style="rounded=1;whiteSpace=wrap;html=1;labelBackgroundColor=none;fillColor=#FAE5C7;strokeColor=#0F8B8D;fontColor=#143642;" vertex="1" parent="1">
          <mxGeometry x="800" y="600" width="120" height="60" as="geometry" />
        </mxCell>
        <mxCell id="jQf6ZwEHjVYbVm3GbVBc-11" value="&lt;b&gt;通&lt;span style=&quot;background-color: initial;&quot;&gt;过&lt;/span&gt;dbOpen传递信号&lt;/b&gt;" style="text;html=1;align=center;verticalAlign=middle;whiteSpace=wrap;rounded=0;labelBackgroundColor=none;fontColor=#143642;" vertex="1" parent="1">
          <mxGeometry x="793" y="510" width="127" height="30" as="geometry" />
        </mxCell>
        <mxCell id="jQf6ZwEHjVYbVm3GbVBc-13" value="Tracing manager" style="rounded=1;whiteSpace=wrap;html=1;labelBackgroundColor=none;fillColor=#FAE5C7;strokeColor=#0F8B8D;fontColor=#143642;" vertex="1" parent="1">
          <mxGeometry x="993" y="810" width="120" height="60" as="geometry" />
        </mxCell>
        <mxCell id="jQf6ZwEHjVYbVm3GbVBc-14" value="Rule manager" style="rounded=1;whiteSpace=wrap;html=1;labelBackgroundColor=none;fillColor=#FAE5C7;strokeColor=#0F8B8D;fontColor=#143642;" vertex="1" parent="1">
          <mxGeometry x="560" y="810" width="120" height="60" as="geometry" />
        </mxCell>
        <mxCell id="jQf6ZwEHjVYbVm3GbVBc-15" value="Reload handler" style="rounded=1;whiteSpace=wrap;html=1;labelBackgroundColor=none;fillColor=#FAE5C7;strokeColor=#0F8B8D;fontColor=#143642;" vertex="1" parent="1">
          <mxGeometry x="1200" y="810" width="120" height="60" as="geometry" />
        </mxCell>
        <mxCell id="jQf6ZwEHjVYbVm3GbVBc-18" style="edgeStyle=orthogonalEdgeStyle;rounded=0;orthogonalLoop=1;jettySize=auto;html=1;exitX=0.5;exitY=1;exitDx=0;exitDy=0;entryX=0.5;entryY=0;entryDx=0;entryDy=0;strokeColor=#A8201A;align=center;verticalAlign=middle;fontFamily=Helvetica;fontSize=11;fontColor=#143642;labelBackgroundColor=default;endArrow=classic;fillColor=#FAE5C7;strokeWidth=3;" edge="1" parent="1" source="jQf6ZwEHjVYbVm3GbVBc-17" target="UFW-9TF6IpXk0PB1q6sR-10">
          <mxGeometry relative="1" as="geometry" />
        </mxCell>
        <mxCell id="jQf6ZwEHjVYbVm3GbVBc-19" style="edgeStyle=orthogonalEdgeStyle;rounded=0;orthogonalLoop=1;jettySize=auto;html=1;exitX=0.5;exitY=1;exitDx=0;exitDy=0;entryX=0.5;entryY=0;entryDx=0;entryDy=0;strokeColor=#A8201A;align=center;verticalAlign=middle;fontFamily=Helvetica;fontSize=11;fontColor=#143642;labelBackgroundColor=default;endArrow=classic;fillColor=#FAE5C7;strokeWidth=3;" edge="1" parent="1" source="jQf6ZwEHjVYbVm3GbVBc-17" target="jQf6ZwEHjVYbVm3GbVBc-14">
          <mxGeometry relative="1" as="geometry" />
        </mxCell>
        <mxCell id="jQf6ZwEHjVYbVm3GbVBc-24" style="edgeStyle=orthogonalEdgeStyle;rounded=0;orthogonalLoop=1;jettySize=auto;html=1;exitX=1;exitY=0.5;exitDx=0;exitDy=0;entryX=0.5;entryY=0;entryDx=0;entryDy=0;strokeColor=#A8201A;align=center;verticalAlign=middle;fontFamily=Helvetica;fontSize=11;fontColor=#143642;labelBackgroundColor=default;endArrow=classic;fillColor=#FAE5C7;strokeWidth=3;" edge="1" parent="1" source="jQf6ZwEHjVYbVm3GbVBc-17" target="jQf6ZwEHjVYbVm3GbVBc-13">
          <mxGeometry relative="1" as="geometry" />
        </mxCell>
        <mxCell id="jQf6ZwEHjVYbVm3GbVBc-27" style="edgeStyle=orthogonalEdgeStyle;rounded=0;orthogonalLoop=1;jettySize=auto;html=1;exitX=1;exitY=0.5;exitDx=0;exitDy=0;entryX=0.5;entryY=0;entryDx=0;entryDy=0;strokeColor=#A8201A;align=center;verticalAlign=middle;fontFamily=Helvetica;fontSize=11;fontColor=#143642;labelBackgroundColor=default;endArrow=classic;fillColor=#FAE5C7;startArrow=blockThin;startFill=1;strokeWidth=3;" edge="1" parent="1" source="jQf6ZwEHjVYbVm3GbVBc-17" target="jQf6ZwEHjVYbVm3GbVBc-15">
          <mxGeometry relative="1" as="geometry" />
        </mxCell>
        <mxCell id="jQf6ZwEHjVYbVm3GbVBc-17" value="代理模式" style="rhombus;whiteSpace=wrap;html=1;labelBackgroundColor=none;fillColor=#FAE5C7;strokeColor=#0F8B8D;fontColor=#143642;" vertex="1" parent="1">
          <mxGeometry x="500" y="680" width="80" height="70" as="geometry" />
        </mxCell>
        <mxCell id="jQf6ZwEHjVYbVm3GbVBc-28" value="NO" style="text;html=1;align=center;verticalAlign=middle;whiteSpace=wrap;rounded=0;labelBackgroundColor=none;fontColor=#143642;fontStyle=1" vertex="1" parent="1">
          <mxGeometry x="490" y="750" width="60" height="30" as="geometry" />
        </mxCell>
        <mxCell id="jQf6ZwEHjVYbVm3GbVBc-34" style="edgeStyle=orthogonalEdgeStyle;rounded=0;orthogonalLoop=1;jettySize=auto;html=1;exitX=0.5;exitY=1;exitDx=0;exitDy=0;entryX=0.5;entryY=0;entryDx=0;entryDy=0;strokeColor=#A8201A;align=center;verticalAlign=middle;fontFamily=Helvetica;fontSize=11;fontColor=#143642;labelBackgroundColor=default;endArrow=classic;fillColor=#FAE5C7;strokeWidth=3;" edge="1" parent="1" source="jQf6ZwEHjVYbVm3GbVBc-33" target="UFW-9TF6IpXk0PB1q6sR-1">
          <mxGeometry relative="1" as="geometry" />
        </mxCell>
        <mxCell id="jQf6ZwEHjVYbVm3GbVBc-33" value="设置命令行参数&lt;br&gt;解析配置" style="rounded=1;whiteSpace=wrap;html=1;labelBackgroundColor=none;fillColor=#FAE5C7;strokeColor=#0F8B8D;fontColor=#143642;" vertex="1" parent="1">
          <mxGeometry x="620" y="20" width="120" height="60" as="geometry" />
        </mxCell>
        <mxCell id="jQf6ZwEHjVYbVm3GbVBc-35" style="edgeStyle=orthogonalEdgeStyle;rounded=0;orthogonalLoop=1;jettySize=auto;html=1;exitX=0.5;exitY=1;exitDx=0;exitDy=0;entryX=0.2;entryY=-0.033;entryDx=0;entryDy=0;entryPerimeter=0;strokeColor=#66FFB3;align=center;verticalAlign=middle;fontFamily=Helvetica;fontSize=11;fontColor=#143642;labelBackgroundColor=default;endArrow=classic;fillColor=#008a00;dashed=1;strokeWidth=3;" edge="1" parent="1" source="UFW-9TF6IpXk0PB1q6sR-5" target="UFW-9TF6IpXk0PB1q6sR-10">
          <mxGeometry relative="1" as="geometry">
            <Array as="points">
              <mxPoint x="570" y="560" />
              <mxPoint x="414" y="560" />
            </Array>
          </mxGeometry>
        </mxCell>
        <mxCell id="jQf6ZwEHjVYbVm3GbVBc-37" value="&lt;font&gt;通过chan&amp;nbsp; 同步最新告警服务的地址&lt;/font&gt;" style="text;html=1;align=center;verticalAlign=middle;whiteSpace=wrap;rounded=0;labelBackgroundColor=none;fontColor=#000000;fontStyle=1" vertex="1" parent="1">
          <mxGeometry x="490" y="490" width="150" height="30" as="geometry" />
        </mxCell>
        <mxCell id="jQf6ZwEHjVYbVm3GbVBc-38" value="&lt;b style=&quot;&quot;&gt;&lt;font color=&quot;#000000&quot;&gt;通过chan&amp;nbsp; 同步最新监控对象的地址&lt;/font&gt;&lt;/b&gt;" style="text;html=1;align=center;verticalAlign=middle;whiteSpace=wrap;rounded=0;labelBackgroundColor=none;fontColor=#143642;" vertex="1" parent="1">
          <mxGeometry x="340" y="450" width="120" height="30" as="geometry" />
        </mxCell>
      </root>
    </mxGraphModel>
  </diagram>
</mxfile>
